<?xml version="1.0" encoding="UTF-8"?>
<svg id="Vrstva_2" data-name="Vrstva 2" xmlns="http://www.w3.org/2000/svg" viewBox="0 0 17.98 17.96">
  <defs>
    <style>
      .cls-1 {
        fill: #a2a1a1;
      }
    </style>
  </defs>
  <g id="Vrstva_1-2" data-name="Vrstva 1">
    <path class="cls-1" d="M14.34,0l-4.79,.29c-.5,.03-.97,.24-1.33,.6L.96,8.15c-1.29,1.29-1.29,3.37,0,4.66l4.19,4.19c1.29,1.29,3.37,1.29,4.66,0l7.27-7.27c.35-.35,.57-.82,.6-1.32l.3-4.76C18.1,1.59,16.4-.12,14.34,0Zm-1.06,6.45c-1.08,0-1.95-.88-1.95-1.95s.88-1.95,1.95-1.95,1.95,.88,1.95,1.95-.88,1.95-1.95,1.95Z"/>
  </g>
</svg>