<?xml version="1.0" encoding="UTF-8"?>
<svg id="Vrstva_2" data-name="Vrstva 2" xmlns="http://www.w3.org/2000/svg" viewBox="0 0 16.05 16.69">
  <defs>
    <style>
      .cls-1 {
        fill: #a2a1a1;
      }
    </style>
  </defs>
  <g id="Vrstva_1-2" data-name="Vrstva 1">
    <path class="cls-1" d="M15.09,3.91L9.03,.28c-.62-.37-1.39-.37-2,0L.97,3.91c-.6,.36-.97,1.01-.97,1.71V14.73c0,1.08,.87,1.96,1.94,1.96h2.52c.44,0,.8-.36,.8-.8v-5.03c0-.8,.65-1.45,1.45-1.45h2.64c.8,0,1.45,.65,1.45,1.45v5.03c0,.44,.36,.8,.8,.8h2.53c1.07,0,1.94-.88,1.94-1.96V5.62c0-.7-.37-1.35-.97-1.71Z"/>
  </g>
</svg>