<?xml version="1.0" encoding="UTF-8"?>
<svg id="Vrstva_2" data-name="Vrstva 2" xmlns="http://www.w3.org/2000/svg" viewBox="0 0 21.45 21.45">
  <defs>
    <style>
      .cls-1 {
        fill: #fff;
      }

      .cls-2 {
        fill: #a2a1a1;
      }
    </style>
  </defs>
  <g id="Vrstva_1-2" data-name="Vrstva 1">
    <g>
      <path class="cls-2" d="M10.72,0C4.8,0,0,4.8,0,10.72s4.8,10.72,10.72,10.72,10.72-4.8,10.72-10.72S16.65,0,10.72,0ZM5.83,13.74h-1.3v-5.33h1.3v5.33Zm2.03-3.47c.21,.12,.51,.23,.91,.33,.74,.19,1.27,.42,1.61,.7,.34,.28,.51,.62,.51,1.04,0,.46-.21,.82-.62,1.08-.41,.26-.97,.39-1.66,.39-.48,0-.92-.08-1.32-.22-.4-.15-.7-.36-.91-.62-.21-.26-.31-.56-.31-.91h1.3c0,.59,.41,.88,1.24,.88,.31,0,.55-.05,.72-.16,.17-.11,.26-.25,.26-.44,0-.21-.09-.37-.26-.48-.17-.11-.48-.23-.93-.35-.45-.12-.8-.25-1.07-.36-.71-.33-1.07-.77-1.07-1.32,0-.29,.1-.54,.29-.77,.19-.23,.47-.4,.82-.53s.76-.19,1.21-.19,.85,.07,1.2,.21c.35,.14,.62,.33,.82,.58s.29,.54,.29,.86h-1.3c0-.24-.09-.43-.27-.57-.18-.14-.44-.2-.76-.2s-.56,.06-.74,.17c-.18,.11-.26,.26-.26,.45,0,.17,.1,.32,.31,.44Zm4.57-1.64v5.11h-1.3v-5.33h1.3v.21Zm1.92,3.89c.21,.27,.53,.4,.97,.4,.4,0,.7-.08,.9-.23,.2-.15,.31-.39,.34-.72h1.3c-.05,.57-.3,1.02-.75,1.35s-1.04,.49-1.78,.49c-.81,0-1.44-.23-1.9-.69-.46-.46-.69-1.09-.69-1.89v-.33c0-.51,.11-.96,.32-1.35,.21-.39,.52-.69,.91-.9,.4-.21,.86-.31,1.38-.31,.73,0,1.31,.16,1.75,.49,.44,.33,.7,.79,.77,1.39h-1.3c-.03-.34-.15-.59-.34-.75-.19-.15-.49-.23-.89-.23-.43,0-.76,.13-.97,.39-.21,.26-.32,.67-.33,1.22v.4c0,.58,.1,1,.31,1.26Z"/>
      <rect class="cls-1" x="11.14" y="8.41" width="1.3" height=".37"/>
    </g>
  </g>
</svg>