<?xml version="1.0" encoding="UTF-8"?>
<svg id="Vrstva_2" data-name="Vrstva 2" xmlns="http://www.w3.org/2000/svg" viewBox="0 0 17.79 14.33">
  <defs>
    <style>
      .cls-1 {
        fill: #a2a1a1;
      }
    </style>
  </defs>
  <g id="Vrstva_1-2" data-name="Vrstva 1">
    <path class="cls-1" d="M16.54,6.12l.94-.74c.2-.16,.31-.4,.31-.65V1.38c0-.76-.61-1.38-1.37-1.38H1.37C.61,0,0,.62,0,1.38v3.33c0,.28,.14,.53,.36,.69l.95,.64c.66,.58,.63,1.62-.06,2.17l-.94,.74c-.2,.16-.31,.4-.31,.65v3.34c0,.76,.61,1.38,1.37,1.38h15.04c.76,0,1.37-.62,1.37-1.38v-3.33c0-.28-.14-.53-.36-.69l-.95-.64c-.66-.58-.63-1.62,.06-2.17Z"/>
  </g>
</svg>